<svg width="18" height="15" viewBox="0 0 18 15" fill="none" xmlns="http://www.w3.org/2000/svg">
<path d="M18 4.1472V11.475C18 12.2221 17.7142 12.9409 17.2011 13.484C16.688 14.0271 15.9865 14.3532 15.2406 14.3955L15.075 14.4H2.925C2.17788 14.4 1.45905 14.1142 0.915992 13.6011C0.37293 13.088 0.0467988 12.3865 0.0045001 11.6406L0 11.475V4.1472L8.6868 8.6976C8.78344 8.74822 8.89091 8.77466 9 8.77466C9.10909 8.77466 9.21656 8.74822 9.3132 8.6976L18 4.1472ZM2.925 2.12446e-08H15.075C15.8 -8.73132e-05 16.4992 0.269096 17.037 0.755341C17.5748 1.24159 17.9129 1.91023 17.9856 2.6316L9 7.3386L0.0144 2.6316C0.084171 1.93888 0.398745 1.29377 0.901575 0.812217C1.4044 0.330668 2.06251 0.0442683 2.7576 0.00450012L2.925 2.12446e-08Z" fill="#11992D"/>
</svg>
