<svg width="11" height="18" viewBox="0 0 11 18" fill="none" xmlns="http://www.w3.org/2000/svg">
<path d="M5.26932 0C3.87181 0 2.53154 0.555159 1.54335 1.54335C0.555159 2.53154 0 3.87181 0 5.26932C0 8.18009 5.26932 18 5.26932 18C5.26932 18 10.5386 8.1808 10.5386 5.26932C10.5386 3.87181 9.98348 2.53154 8.99529 1.54335C8.0071 0.555159 6.66683 0 5.26932 0ZM5.26932 7.78735C4.6015 7.78735 3.96102 7.52206 3.4888 7.04984C3.01658 6.57762 2.75129 5.93714 2.75129 5.26932C2.75129 4.6015 3.01658 3.96103 3.4888 3.4888C3.96102 3.01658 4.6015 2.75129 5.26932 2.75129C5.93714 2.75129 6.57761 3.01658 7.04984 3.4888C7.52206 3.96103 7.78735 4.6015 7.78735 5.26932C7.78735 5.93714 7.52206 6.57762 7.04984 7.04984C6.57761 7.52206 5.93714 7.78735 5.26932 7.78735Z" fill="#11992D"/>
</svg>
